<?xml version="1.0" encoding="UTF-8"?>
<svg id="Layer_2" xmlns="http://www.w3.org/2000/svg" version="1.1" viewBox="0 0 128 128">
  <!-- Generator: Adobe Illustrator 29.5.0, SVG Export Plug-In . SVG Version: 2.1.0 Build 137)  -->
  <defs>
    <style>
      .st0 {
        fill: #3f545f;
      }

      .st1 {
        fill: #a02524;
      }

      .st2 {
        fill: #a02422;
      }

      .st3 {
        fill: #437687;
      }

      .st4 {
        fill: #e1e1e1;
      }

      .st5 {
        fill: #ca2c31;
      }

      .st6 {
        fill: #6896a5;
      }

      .st7 {
        fill: #d83f22;
      }

      .st8 {
        fill: #ed6a65;
      }

      .st9 {
        fill: #b3e1ee;
      }

      .st10 {
        fill: #fbf0b4;
      }

      .st11 {
        fill: #858585;
      }

      .st12 {
        fill: #f7d74d;
      }

      .st13 {
        fill: #8dafbf;
      }
    </style>
  </defs>
  <polygon class="st5" points="3.77 71.73 20.11 55.63 47.93 50.7 45.18 65.26 7.57 76.82 5.14 75.77 3.77 71.73"/>
  <polygon class="st2" points="22.94 59.76 5.2 75.88 18.25 82.24 38.06 72.13 38.06 67.36 42.11 56.44 22.94 59.76"/>
  <path class="st2" d="M64.92,88.15l-8.57,3.72-8.09,17.15s7.12,15.77,7.44,15.77,4.37.32,4.37.32l14.4-16.1,3.64-27.5-13.19,6.64Z"/>
  <path class="st5" d="M56.5,100.84s4.77-.97,8.17-2.59c3.4-1.62,7.6-4.04,7.6-4.04l-1.54,13.43-15.05,17.13s-.59-.73-3.09-6.17c-1.99-4.34-2.68-5.89-2.68-5.89l6.59-11.87Z"/>
  <path class="st12" d="M31.58,80.66s-5.74-.48-12.03,7.47c-5.74,7.26-8.43,19.08-9.47,22.12s-3.53,3.66-2.7,5.05,4.42,1.31,8.85.76,8.23-1.94,8.23-1.94c0,0-.19.48-.83,1.52-.23.37-1.03.9-.97,1.45.14,1.31,11.36,1.34,20.32-7.88,9.68-9.95,4.98-18.11,4.98-18.11l-16.38-10.44Z"/>
  <path class="st10" d="M33.31,85.29s-6.19.33-11.31,8.28-7.5,17.16-7.01,17.78c.48.62,10.02-2.83,12.31-2.14,1.57.48.76,2.07,1.18,2.49.35.35,4.49.94,11.19-6.32,6.71-7.26,5.12-17.46,5.12-17.46l-11.48-2.63Z"/>
  <path class="st11" d="M36.35,74.44s-3.11,2.77-4.22,4.36c-1.11,1.59-1.11,1.73-1.04,2.21.07.48,1.22,5.75,6.01,10.37,5.88,5.67,11.13,6.43,11.89,6.43s5.81-5.67,5.81-5.67l-18.45-17.7Z"/>
  <path class="st3" d="M50.1,91.24s5.04,3.31,13.49.47c11.55-3.88,20.02-12.56,30.51-23.52,10.12-10.58,18.61-23.71,18.61-23.71l-5.95-19.93-56.66,66.69Z"/>
  <path class="st0" d="M67.99,80.33l1.39-4.32,3.48.49s2.65,1.25,4.6,2.16,4.46,1.6,4.46,1.6l-4.95,4.18s-2.7-1.02-4.67-1.88c-2.22-.97-4.31-2.23-4.31-2.23Z"/>
  <path class="st13" d="M84.32,16.14s-9.62,5.58-23.41,18.63c-12.43,11.76-21.64,22.4-23.87,31.45-1.86,7.58-.87,12.18,3.36,17.15,4.47,5.26,9.71,7.87,9.71,7.87,0,0,3.94.06,20.38-12.59,20.51-15.79,36.94-42.23,36.94-42.23l-23.11-20.28Z"/>
  <path class="st7" d="M104.18,41.84s-8.37-3.57-14.34-11.9c-5.93-8.27-5.46-13.86-5.46-13.86,0,0,4.96-3.89,16.11-8.34,7.5-2.99,17.71-4.52,21.07-2.03,3.36,2.49-2.3,14.98-2.3,14.98l-10.31,19.96-4.77,1.19Z"/>
  <path class="st6" d="M68.17,80.4s-7.23-3.69-11.83-8.94c-8.7-9.91-10.5-20.79-10.5-20.79l4.37-5.13s1.09,11.56,10.42,21.55c6.08,6.51,12.43,9.49,12.43,9.49,0,0-1.27,1.07-2.63,2.11-.87.67-2.26,1.71-2.26,1.71Z"/>
  <path class="st2" d="M112.71,44.48s4.34-5.23,8.45-17.02c5.74-16.44.74-21.42.74-21.42,0,0-1.69,7.82-7.56,18.69-4.71,8.71-10.41,17-10.41,17,0,0,3.14,1.41,4.84,1.9,2.14.62,3.94.85,3.94.85Z"/>
  <path class="st9" d="M39.81,69.66c1.3,1.24,3.27-.06,4.56-3.1,1.3-3.04,1.28-4.74.28-5.46-1.24-.9-3.32,1.07-4.23,2.82-1,1.94-1.59,4.8-.61,5.74Z"/>
  <path class="st9" d="M84.95,20.13s-7.61,5.47-15.73,12.91c-7.45,6.83-12.39,12.17-13.07,13.41-.72,1.33-.73,3.21-.17,4.17s1.8,1.46,2.93.62c1.13-.85,9.18-9.75,16.45-16.11,6.65-5.82,11.78-9.51,11.78-9.51,0,0,2.08-3.68,1.74-4.52-.34-.85-3.93-.97-3.93-.97Z"/>
  <path class="st8" d="M84.95,20.13s5.62-4.31,11.74-7.34c5.69-2.82,11.35-5.17,12.37-3.13.97,1.94-5.37,4.58-10.95,8.14-5.58,3.56-10.95,7.81-10.95,7.81,0,0-.82-1.5-1.35-2.89-.59-1.51-.86-2.59-.86-2.59Z"/>
  <path class="st4" d="M89.59,39.25c-5.57-5.13-13.32-3.75-17.14.81-3.92,4.7-3.63,11.88,1,16.2,4.21,3.92,12.04,4.81,16.76-.69,4.2-4.88,3.94-12.13-.62-16.32Z"/>
  <path class="st0" d="M75.33,41.87c-3.31,3.25-3.13,9.69.81,12.63,3.44,2.57,8.32,2.44,11.38-.69,3.06-3.13,3.06-8.82.19-11.76-3.3-3.37-8.59-3.9-12.38-.18Z"/>
  <path class="st1" d="M50,76.89s6.19-6.28,6.87-5.6.59,4.49-2.37,8.73c-2.97,4.24-9.5,11.79-14.67,16.88-5.1,5.01-12.29,10.74-12.97,10.64-.53-.08-2.68-1.15-3.54-2.19-.84-1.03,1.67-5.9,2.68-7.51,1.02-1.61,24-20.95,24-20.95Z"/>
  <path class="st5" d="M21.23,101.85c-.08,1.44,2.12,3.54,2.12,3.54l33.52-34.09s-1.57-1.77-6.19,1.1c-4.66,2.9-8.74,6.38-14.76,12.21-8.39,8.14-14.61,15.8-14.69,17.24Z"/>
</svg>